<?xml version="1.0" encoding="UTF-8"?><svg id="Layer_2" xmlns="http://www.w3.org/2000/svg" viewBox="0 0 911 991.93"><defs><style>.cls-1{font-family:HiraKakuStd-W8-83pv-RKSJ-H, 'Hiragino Kaku Gothic Std';font-size:88px;}.cls-2{fill:none;stroke:#020202;stroke-miterlimit:10;stroke-width:25px;}</style></defs><g id="Layer_1-2"><path d="M748.2,597.03c-6.82,4.51-14.1,4.36-21.17,3.15-5.99-1.02-12.07-2.67-17.56-5.24-26.04-12.19-51.4-11.34-77.25,1.22-13.2,6.42-27.3,11.38-41.45,15.35-20.08,5.63-39.84,2.04-59.09-5.26-13.67-5.18-27.49-11.21-42.4-9.27-11.57,1.51-23.04,4.72-34.16,8.4-15.43,5.1-30.86,10.03-47.25,8.17-11.17-1.26-22.12-4.4-33.24-6.18-10.46-1.68-21.02-2.61-29.9-.85,11.16,4.24,23.65,8.59,35.82,13.71,12.67,5.33,25.64,9.12,39.36,10.23,13.52,1.09,26.38-2.16,39.22-5.83,9.07-2.59,18.2-5.44,27.51-6.67,10.84-1.43,21.7,.92,31.72,5.1,37.63,15.66,74.3,13.65,110.86-3.85,9.43-4.51,19.93-7.28,30.25-9.3,16.62-3.25,32.32,1.82,47.47,8.14,24.4,10.17,49.73,15.16,76.01,12.4,12.58-1.32,24.88-5.31,37.31-8.08,.43-.1,.89-.06,2.61-.17-1.59,2.05-2.47,3.48-3.62,4.63-12.74,12.79-28.88,18.5-46.07,21.88-24.26,4.77-47.43,.5-70.47-7.55-10.7-3.74-22.15-5.87-33.45-7.21-13.25-1.57-25.5,3.67-37.45,8.78-16.28,6.96-32.94,12.08-50.73,13.52-13.73,1.11-26.79-1.45-39.77-5.28-11.77-3.47-23.48-7.17-35.35-10.26-10.47-2.73-20.76-1.11-30.82,2.66-17.63,6.61-35.71,10.34-54.7,8.37-15.99-1.66-31.15-6.35-46.18-11.82-12.28-4.47-24.67-8.76-37.25-12.25-9.86-2.73-19.71-.6-29.45,2.29-10.15,3.01-20.43,5.79-30.82,7.7-14.29,2.63-28.1-.55-41.54-5.47-10.31-3.77-20.64-8.13-31.8-7.32-7.5,.54-15.07,2.29-22.26,4.58-15.75,5.02-31.44,9.98-48.27,8.22-16.35-1.71-30.97-7.36-42.35-19.75-1.57-1.71-2.58-3.94-3.85-5.93,.3-.33,.59-.65,.89-.98,4.25,1.54,8.45,3.22,12.75,4.58,22.96,7.25,45.27,4.51,67.15-4.55,12.79-5.29,25.82-10.59,39.92-9.13,9.79,1.02,19.65,3.26,28.99,6.38,15.17,5.08,30.33,8.96,46.41,6.38,6.2-.99,12.31-2.64,18.42-4.14,4.32-1.07,8.58-2.4,13.09-3.67-11.44-4.02-23.1-7.65-34.37-12.23-9.95-4.04-19.61-8.9-29.12-13.93-3.25-1.72-5.89-4.85-8.32-7.75-1.11-1.32-1.04-3.63-1.5-5.49,1.88-.19,3.88-.89,5.62-.49,8.88,2.07,17.61,4.86,26.54,6.6,21.83,4.24,43.67,8.61,65.66,11.84,19.39,2.85,38.97,4.74,58.53,6.13,20.67,1.46,40.6-3.02,60.23-9.34,25.31-8.15,50.33-7.75,74.8,3.61,20.85,9.68,41.48,6.81,61.85-1.66,11.19-4.65,22.17-9.83,33.39-14.39,27.8-11.3,53.99-7.33,78.81,8.75,11.05,7.16,22.4,13.69,35.42,16.69,2.14,.49,4.23,1.18,6.34,1.77Z"/><path d="M348.38,790.12c-.15,.76-.31,1.24-.33,1.73-.04,1-.01,2-.01,3.31,.7,.18,1.42,.39,2.16,.55,.64,.14,1.28,.22,2.25,.38v6.23c-1.34,.3-2.86,.64-4.69,1.05-.2,3.98-.39,7.9-.6,12.11-3.17,.17-6.23,1.27-6.04-3.53,.11-2.8,.02-5.61,.02-8.63-1.8-.29-3.22-.52-4.92-.79v-6.53c1.46-.17,2.88-.34,4.82-.57v-104.37c10.51-.82,20.27-1.53,28.66,6.05,7.82,7.07,17.43,9.33,27.83,8.42,20.05-1.76,40.1-3.57,60.15-5.28,26.01-2.22,51.99-4.83,78.04-6.36,15.4-.91,29.11,10.24,33.26,25.05q1.02,3.63,5.59,3.28c0-3.1-.8-6.53,.26-9.23,.78-1.99,3.99-3.04,7.18-5.24,0-2.55-.07-6.68,.02-10.81,.12-5.7,4.06-9.23,10.09-9.21,6,.03,8.09,2.03,8.12,8.73,.13,25.49,.16,50.97,.09,76.46-.02,6.2-3.28,8.84-10.01,8.74-5.63-.08-8.11-2.71-8.28-8.93-.08-2.81-.01-5.63-.01-8.94-7.28,1.34-7.55-3.15-7.24-8.16,.1-1.66-.17-3.36,.08-4.99,.7-4.52-1.31-5.69-5.21-4.7v70.33h-83.09c1.96-12.17,4.45-24.35,5.73-36.66,.86-8.33,1.01-17.01-.33-25.23-1.43-8.8-8.36-13.55-17.22-13.59-26.82-.11-53.64-.19-80.46,.08-8.76,.09-15.74,4.51-19.78,12.3-2.73,5.26-4.48,11.06-6.37,16.71-3.69,11.09-8.88,16.58-19.79,20.23Zm184.33-27.38c9.51,.03,17.05-7.87,16.98-17.78-.07-9.33-7.9-17.21-17.12-17.22-9.47-.02-17.26,7.87-17.38,17.58-.11,9.4,7.93,17.39,17.52,17.42Zm-176.78,3c4.49-.03,8.15-3.65,7.97-7.88-.17-4.06-3.79-7.48-7.94-7.49-4.25-.01-8.04,3.83-7.88,7.98,.16,4.18,3.6,7.42,7.84,7.39Z"/><path d="M761.3,473.39c-.02,21.87-3.99,42.95-12.65,63.07-1.5,3.48-2.35,8.18-7.52,8.2-4.96,.02-6.22-4.31-8.06-7.79-4.35-8.22-8.23-16.73-13.12-24.62-13.43-21.64-33.27-34.59-57.87-39.94-5.76-1.25-12.22-.02-18.25,.87-8.63,1.27-12.6-2.56-11.28-11.12,.39-2.5-.21-5.64-1.48-7.84-9.72-16.89-25.21-23.21-43.94-23.29-1.83,0-3.86,.37-5.45-.27-2.74-1.1-6.54-2.31-7.45-4.5-1.04-2.49-.44-6.94,1.28-9.05,4.59-5.65,9.78-10.95,15.39-15.59,19.96-16.54,42.03-29.21,67.89-33.86,36.2-6.51,63.8,7.59,84.07,36.98,14.18,20.56,18.56,44.15,18.43,68.75Zm-156.5-54.85c14.26,2.7,25.34,10.8,35.49,20.93,16.4-21.34,34.69-39.65,56.35-54.48-23.05,9.41-39.79,26.74-56.01,44.65-12.36-9.76-21.04-12.6-35.83-11.1Zm127.71,83.23c-8.5-28.7-38.86-52.53-71.11-46.78,29.26,7.19,53.68,21.7,71.11,46.78Z"/><path d="M347.55,580.81c-4.01-.83-7.7-1.59-12.55-2.6,9.14-35.84,18.17-71.3,27.38-107.41-2.73-1.96-10.44-1.49-7.41-8.98,2.38-5.9,7.36-2.31,11.65-2.13,4.54-12.23,8.94-24.54,13.67-36.72,19.23-49.57,43.28-96.72,71.7-141.64,7.29-11.52,15.01-22.77,22.74-34,1.3-1.89,3.66-3.06,5.53-4.57,1.52,2.04,3.8,3.87,4.43,6.15,5.25,19.02,11.33,37.9,15,57.24,6.61,34.89,11.99,70.03,17.39,105.13,4.7,30.54,8.75,61.17,12.96,91.78,.43,3.15,2.25,3.88,4.77,4.75,2.2,.75,4.68,1.93,5.97,3.69,.8,1.11,.29,4.54-.81,5.35-1.75,1.29-4.99,2.38-6.69,1.59-4.98-2.29-9.3-.7-13.89,.69-49.7,15-99.4,29.98-149.12,44.93-5.24,1.58-10.49,3.28-15.85,4.28-3.98,.74-5.83,2.33-5.63,6.48,.08,1.75-.7,3.54-1.24,5.99Zm29.97-118.1c45.86,12.86,91.05,25.53,136.93,38.39-.47-9.8-1.09-19.08-1.27-28.38-.06-3.37-1.3-4.86-4.31-6.2-33.62-15.05-67.16-30.29-100.73-45.44-4.33-1.95-8.73-3.73-13.44-5.72-5.83,16.06-11.46,31.57-17.18,47.35Zm124.42,44.88c-43.34-12.02-85.23-23.65-127.97-35.5-6.74,25.52-13.3,50.36-20.1,76.11,25.61-7.45,49.53-14.71,73.63-21.32,24.22-6.64,48.61-12.63,74.44-19.29Zm-100.2-101.03c36.97,16.69,72.93,32.93,109.52,49.45-3.66-29.48-7.23-58.26-10.85-87.41-33.09,12.73-65.41,25.17-98.67,37.96Zm91.23-79.38c-15.29-3.06-29.95-5.86-44.53-9.02-3.92-.85-6.07,0-7.91,3.6-9.06,17.76-18.4,35.38-27.49,53.13-3.36,6.57-6.31,13.36-9.95,21.11,32.41-12.51,63.58-24.54,95.34-36.8-1.82-10.69-3.63-21.28-5.46-32.02Zm-45.19-18.5c14.89,2.95,28.78,5.7,43.48,8.62-4.62-18.66-9.02-36.42-13.77-55.63-10.29,16.28-19.74,31.25-29.7,47.02Z"/><path d="M177.7,464.07c1.24-26.54,7.37-51.2,22.41-73.17,17.54-25.62,42.25-35.27,72.57-31.76,16.89,1.96,31.77,8.23,43.17,21.33,1.84,2.11,3.39,4.53,4.79,6.96,3.54,6.14,3.92,11.63-.34,18.35-17.57,27.72-39.4,51.9-61.44,75.94-13.04,14.23-26.3,28.27-39.62,42.25-7.76,8.15-16.17,7.96-24.06-.27-6.66-6.95-10.17-15.66-12.04-24.8-2.35-11.51-3.68-23.22-5.45-34.84Zm116.5-87.75c-26.64-15.27-60.32-12.42-81.51,13.65-13.59,16.72-20.49,36.2-23.36,57.78,2.35,.34,4.6,.75,6.87,.97,5.96,.56,12,.66,17.88,1.68,4.26,.75,6.06-.57,7.75-4.38,14.55-32.85,35.1-59.61,72.37-69.7Zm-79.49,139.16c1.02-.55,1.36-.62,1.52-.83,2.6-3.46,5.19-6.92,7.75-10.4,19.65-26.83,38.96-53.89,54.4-83.43,4.93-9.45,8.82-19.44,13.36-29.56-1.74-.28-2.23-.48-2.68-.41-.98,.15-1.95,.39-2.9,.66-9.68,2.69-17.84,8-25.11,14.76-13.39,12.44-22.96,27.52-30.13,44.2-8.84,20.58-14.23,42.03-16.19,65.01Zm83.49-124.83c-10.22,33.81-30.51,61.72-48.48,91.03,15.52-16.58,30.57-33.47,45.02-50.87,6.88-8.29,12.86-17.37,18.74-26.42,3.4-5.22,2.58-6.88-3.23-9.41-3.75-1.63-7.71-2.79-12.05-4.33Zm-91.03,104.05c2.96-11.81,5.92-23.59,8.93-35.56-8.5-.72-16.6-1.56-24.73-1.93-1.06-.05-3.17,2.29-3.17,3.53-.03,6.14-.15,12.4,.94,18.41,3.21,17.79-.49,14.52,17.16,15.93,.29,.02,.59-.25,.87-.37Zm-12.36,8.42c2,6.64,4.42,12.06,10.93,14.78v-13.95c-3.67-.28-7.04-.53-10.93-.83Z"/><path d="M396.9,662.8c-5.57,1.13-9.95,2.47-14.41,2.83-12.03,.98-23.84-.69-35.52-3.68-9.94-2.54-19.88-6.17-30.35-3.15-6.04,1.74-12.01,3.82-17.83,6.19-18.05,7.36-36.44,7.84-54.57,1.43-17.54-6.2-34.5-6.46-52.06-.36-17.19,5.97-34.37,5.06-50.72-3.48-4.98-2.6-10.14-5.35-12.96-12.17,5.86,2.02,10.52,4.14,15.41,5.22,15.54,3.42,30.47,.73,44.6-6.05,17.37-8.34,34.59-8.93,52.45-1.5,21.33,8.87,43.06,9.23,64.54,.48,14.6-5.94,28.97-5.32,43.09,.69,14.79,6.29,29.73,11.48,46.01,11.62,.25,0,.49,.39,2.33,1.92Z"/><path d="M453.04,830.95c-45.14,0-90.28,0-135.42,0-2.33,0-4.93,.48-6.91-.39-1.9-.83-4.31-3.06-4.39-4.78-.08-1.77,2.02-4.26,3.82-5.33,1.66-.98,4.2-.64,6.34-.64,91.61,0,183.23,0,274.84,.02,1,0,2-.02,3,.07,3.55,.31,6.29,1.89,6.19,5.76-.1,3.95-2.96,5.21-6.55,5.22-17.66,.03-35.31,.09-52.97,.1-29.32,.02-58.63,0-87.95,0v-.04Z"/><path d="M351.21,845.22c3.34,.28,6.26,.53,9.63,.81,1.2,7.92,2.39,15.75,3.82,25.17,2.57-7.37,5.03-13.36,6.71-19.57,1.28-4.71,3.72-5.21,7.96-4.4,3.38,.64,3.11,3.02,3.48,5.09,1.18,6.5,2.13,13.04,3.89,19.54,1.82-5.83,3.91-11.59,5.38-17.5,1.13-4.56,3.05-6.74,7.89-4.82,.88,.35,1.93,.26,3.43,.44-3.31,10-6.52,19.72-9.74,29.43-.37,1.1-.81,2.18-1.18,3.28-2.36,7.05-2.34,6.91-9.59,6.08-2.97-.34-3.73-1.58-3.99-4.41-.53-5.73-1.62-11.4-3.37-17.22-1.94,5.3-4.24,10.51-5.72,15.94-1.61,5.9-5.92,3.32-9.3,3.54-3.45,.22-3.17-2.55-3.52-4.85-1.87-12.08-3.82-24.14-5.8-36.56Z"/><path d="M337.84,690.99v97.33c-7.64,.42-12.5-3.36-12.55-10.64-.18-25.49-.18-50.99,.05-76.49,.07-7.43,4.2-10.49,12.5-10.2Z"/><path d="M445.82,849.94c7.33-2.49,11.96,.44,14.85,7.54,1.67,4.1,4.2,7.86,6.81,12.6v-21.01h8.49c.55,13.71,1.09,27.29,1.66,41.62-2.33,0-4.47-.2-6.55,.05-3.08,.36-4.8-.71-6.13-3.62-3.01-6.59-6.43-12.99-10.08-20.26v23.61h-9.04v-40.54Z"/><path d="M415.2,849.93h12.45c3.67,13.52,7.31,26.9,11.04,40.61h-10.12c-.65-2.09-1.33-4.24-2.11-6.73-3.37-.17-6.83-.46-10.28-.46-.94,0-2.66,.85-2.69,1.38-.29,5.93-4.43,5.04-8.21,4.86-.82-.04-1.64,0-3.14,0,4.43-13.47,8.74-26.56,13.05-39.66Zm8.84,24.73c-1.03-4.19-1.98-8.08-3.21-13.11-1.52,5.07-2.66,8.9-3.92,13.11h7.13Z"/><path d="M563.39,843.74c4.04-.61,7.93-1.19,12.04-1.81,5.85,12.43,11.62,24.67,17.53,37.22-2.14,.47-3.86,.82-5.57,1.24-2.84,.69-5.27,.63-6.07-2.93-.62-2.77-2.59-3.11-4.96-2.6-.81,.18-1.62,.57-2.42,.56-4.99-.08-8.09,1.65-6.82,7.59-3.44,.59-6.47,1.1-10.42,1.77,2.24-13.77,4.41-27.08,6.68-41.04Zm8.12,11.87c-.34,.04-.68,.08-1.02,.13-.48,3.91-.96,7.81-1.5,12.2,2.82-.66,4.83-1.13,7.03-1.65-1.6-3.78-3.05-7.23-4.51-10.68Z"/><path d="M486.36,878.06c4.33-.05,8.45-2.7,11.98,1.97,.59,.78,4.2-.72,6.42-1.17-1.14-1.5-1.98-3.56-3.5-4.39-2.88-1.57-6.21-2.29-9.23-3.64-5.21-2.32-7.5-6.6-6.97-12.52,.47-5.26,3.32-9.06,8.81-10.1,9.54-1.81,17.88-1.6,19.67,11.3-4.18-.31-8.59,2.23-12.16-2.5-.65-.86-5.03-.47-5.85,.67-1.76,2.42,.39,4.15,2.8,5.12,3.69,1.48,7.52,2.7,11.02,4.54,4.62,2.43,6.63,7.04,5.59,12.24-1.01,5-4.05,8.21-9.17,9.33-10.25,2.23-17.6-1.61-19.4-10.85Z"/><path d="M345.06,856.71c-4.03-1.19-8.85,.02-11.73-4.81-.65-1.09-3.83-.67-5.84-.94-.3,.78-.6,1.57-.9,2.35,3.31,2.16,6.54,4.45,9.94,6.46,7.24,4.28,9.49,10.8,5.74,17.1-3.35,5.64-11.59,7.93-19.16,5.33-6.17-2.12-8.6-6.59-7.54-15.36,3.98,2.19,7.51,4.35,11.23,6.09,1.64,.77,3.67,.87,5.53,.88,.57,0,1.76-1.78,1.62-1.97-1.09-1.47-2.28-2.96-3.74-4.04-1.44-1.07-3.29-1.56-4.85-2.5-7.74-4.63-10.02-12.46-5.57-18.85,4.14-5.94,14.45-7.22,20.31-1.74,2.98,2.79,4.5,7.14,6.68,10.78-.57,.41-1.13,.81-1.7,1.22Z"/><path d="M533.07,870.42c.16,2.5,.3,4.72,.46,7.36,5.37-.41,10.28-.79,15.54-1.19,.42,2.75,.79,5.14,1.26,8.27-8.45,.78-16.47,1.52-25.49,2.35-1.06-13.48-2.11-26.77-3.21-40.78,8.38-.62,16.23-1.2,24.61-1.82,.35,2.67,.66,5.05,1.05,8.05-5.19,.62-10.04,1.19-15.06,1.79v5.95h11.75c.31,2.53,.64,5.23,1.04,8.46-4.1,.54-7.8,1.02-11.96,1.57Z"/><path d="M604.93,734.08c0-7.65-.08-15.3,.07-22.94,.03-1.47,.65-3.97,1.46-4.18,1.68-.43,4.25-.26,5.4,.8,1.84,1.69,3.49,4.16,4.06,6.57,3.21,13.77,3.28,27.64-.02,41.41-.53,2.21-2.08,4.66-3.9,5.99-3.52,2.56-6.95,.62-7.01-3.71-.11-7.98-.03-15.96-.03-23.94h-.02Z"/><path d="M344.21,686.53c-3.95,.89-6.28-1.09-6.09-5.54,.3-6.81,5.73-3.83,9.13-4.34,2.68-.41,5.56-.14,5.63,3.78,.08,4.56-2.1,6.19-8.66,6.1Z"/><path d="M540.97,691.48h-6.82c0-5-.2-9.78,.14-14.51,.08-1.14,2.15-3.16,2.95-3,1.39,.28,3.45,1.86,3.56,3.04,.41,4.73,.17,9.51,.17,14.47Z"/><circle class="cls-2" cx="455.5" cy="536.43" r="443"/><text class="cls-1" transform="translate(146.21 379.58) rotate(-57.72)"><tspan x="0" y="0">B</tspan></text><text class="cls-1" transform="translate(183.57 322.74) rotate(-49.83)"><tspan x="0" y="0">I</tspan></text><text class="cls-1" transform="translate(200.52 300.02) rotate(-41.63)"><tspan x="0" y="0">G</tspan></text><text class="cls-1" transform="translate(255.12 253.39) rotate(-33.54)"><tspan x="0" y="0"> </tspan></text><text class="cls-1" transform="translate(276.86 236.75) rotate(-25.24)"><tspan x="0" y="0">A</tspan></text><text class="cls-1" transform="translate(344.68 206.46) rotate(-16.83)"><tspan x="0" y="0">I</tspan></text><text class="cls-1" transform="translate(371.27 196.69) rotate(-8.68)"><tspan x="0" y="0">R</tspan></text><text class="cls-1" transform="translate(440.81 187.46) rotate(-.54)"><tspan x="0" y="0"> </tspan></text><text class="cls-1" transform="translate(468.11 185.52) rotate(7.63)"><tspan x="0" y="0">R</tspan></text><text class="cls-1" transform="translate(537.3 194.57) rotate(19.18)"><tspan x="0" y="0">E</tspan></text><text class="cls-1" transform="translate(595.57 214.04) rotate(28.9)"><tspan x="0" y="0">P</tspan></text><text class="cls-1" transform="translate(648.04 241.66) rotate(39.6)"><tspan x="0" y="0">A</tspan></text><text class="cls-1" transform="translate(704.26 290.2) rotate(48.14)"><tspan x="0" y="0">I</tspan></text><text class="cls-1" transform="translate(724.35 310.17) rotate(56.26)"><tspan x="0" y="0">R</tspan></text></g></svg>